<svg width="49" height="48" viewBox="0 0 49 48" fill="none" xmlns="http://www.w3.org/2000/svg">
<g id="cargo-ship (1) 1" clip-path="url(#clip0_11440_34643)">
<path id="Vector" d="M13.1472 18.9156V31.3788H7.9625V19.2102C7.9625 19.0464 8.09398 18.9156 8.25415 18.9156H13.1472Z" fill="#FFDB06" stroke="#422C77" stroke-width="0.3"/>
<path id="Vector_2" d="M18.6324 14.0911V31.3793H13.4469V14.0911C13.4469 13.9273 13.5784 13.7965 13.7385 13.7965H18.3407C18.5009 13.7965 18.6324 13.9273 18.6324 14.0911Z" fill="#6193FF" stroke="#422C77" stroke-width="0.3"/>
<path id="Vector_3" d="M24.1179 19.2102V31.3788H18.9332V18.9156H23.8263C23.9865 18.9156 24.1179 19.0464 24.1179 19.2102Z" fill="#FFDB06" stroke="#422C77" stroke-width="0.3"/>
<path id="Vector_4" d="M29.6023 24.1086V31.3795H24.4176V23.8141H29.3107C29.4708 23.8141 29.6023 23.9452 29.6023 24.1086Z" fill="#6193FF" stroke="#422C77" stroke-width="0.3"/>
<path id="Vector_5" d="M7.9625 23.027H13.1472V24.1647H7.9625V23.027Z" fill="#FFAB1E" stroke="#422C77" stroke-width="0.3"/>
<path id="Vector_6" d="M13.4469 23.027H18.6324V24.1647H13.4469V23.027Z" fill="#407BFF" stroke="#422C77" stroke-width="0.3"/>
<path id="Vector_7" d="M13.4469 27.8922H18.6324V29.0303H13.4469V27.8922Z" fill="#407BFF" stroke="#422C77" stroke-width="0.3"/>
<path id="Vector_8" d="M7.9625 27.8922H13.1472V29.0303H7.9625V27.8922Z" fill="#FFAB1E" stroke="#422C77" stroke-width="0.3"/>
<path id="Vector_9" d="M18.9332 27.8922H24.1179V29.0303H18.9332V27.8922Z" fill="#FFAB1E" stroke="#422C77" stroke-width="0.3"/>
<path id="Vector_10" d="M24.4176 27.8922H29.602V29.0299H24.4176V27.8922Z" fill="#407BFF" stroke="#422C77" stroke-width="0.3"/>
<path id="Vector_11" d="M18.9332 23.027H24.1179V24.1647H18.9332V23.027Z" fill="#FFAB1E" stroke="#422C77" stroke-width="0.3"/>
<path id="Vector_12" d="M34.7451 24.027H45.9999C46.495 24.027 46.8958 24.4278 46.8958 24.9225V27.0979H33.8492V24.9225C33.8492 24.4279 34.2504 24.027 34.7451 24.027Z" fill="#FF6969" stroke="#422C77" stroke-width="0.3"/>
<path id="Vector_13" d="M13.4469 18.1617H18.6324V19.2995H13.4469V18.1617Z" fill="#407BFF" stroke="#422C77" stroke-width="0.3"/>
<path id="Vector_14" d="M48.306 28.4065L48.3062 28.4058C48.4892 27.8307 48.0592 27.2438 47.456 27.2438H33.6985C33.2204 27.2438 32.7891 27.5314 32.6051 27.9729L32.605 27.9729L31.4911 30.6442C31.4911 30.6442 31.4911 30.6442 31.4911 30.6442C31.2609 31.1987 30.7202 31.5592 30.1196 31.5592H11.9024C11.2734 31.5592 10.7125 31.1628 10.5023 30.5698L10.5023 30.5697L9.60402 28.0334C9.60401 28.0334 9.60401 28.0334 9.604 28.0334C9.43622 27.5603 8.98854 27.2438 8.48673 27.2438H1.41922C1.06492 27.2438 0.812403 27.5881 0.918829 27.9257L48.306 28.4065ZM48.306 28.4065L48.4492 28.4513L48.306 28.4065L48.306 28.4066L48.3059 28.4068L48.3055 28.408L48.3041 28.4125L48.2985 28.4304L48.2766 28.5002L48.1934 28.7657L47.895 29.7168C47.6472 30.506 47.3148 31.5631 46.9764 32.6351C46.628 33.7373 46.2731 34.8549 45.9974 35.7124C45.8595 36.1413 45.7415 36.5047 45.6541 36.7686C45.6103 36.9006 45.5744 37.0072 45.5475 37.0843C45.5423 37.0993 45.5374 37.1131 45.533 37.1256L43.4902 37.1065L43.4902 37.1065L39.0063 37.0662L36.5944 37.0442L32.3204 37.0047H32.319H32.3179L29.7097 36.9809L25.6246 36.9435L22.8348 36.9175H22.8348L18.9263 36.882L18.9262 36.882L15.9629 36.8542L15.9628 36.8542L12.222 36.8208H12.222L9.09751 36.7919L9.09749 36.7919L5.51597 36.7582L5.5159 36.7582L3.70147 36.742L2.64149 33.3844L2.64148 33.3844L0.918839 27.9257L48.306 28.4065Z" fill="#41739F" stroke="#422C77" stroke-width="0.3"/>
<g id="Group">
<path id="Vector_15" d="M40.3735 16.3738C40.059 16.3738 39.8043 16.119 39.8043 15.8049V8.78137C39.8043 8.46729 40.059 8.2125 40.3735 8.2125C40.6877 8.2125 40.9424 8.46724 40.9424 8.78137V15.8049C40.9424 16.1191 40.6877 16.3738 40.3735 16.3738Z" fill="#C4DAEC" stroke="#422C77" stroke-width="0.3"/>
<path id="Vector_16" d="M38.9767 10.7233H41.7698C42.0839 10.7233 42.3387 10.4686 42.339 10.1543L38.9767 10.7233ZM38.9767 10.7233C38.6626 10.7233 38.4078 10.4685 38.4078 10.1544M38.9767 10.7233L38.4078 10.1544M38.4078 10.1544C38.4078 9.84029 38.6626 9.58555 38.9767 9.58555M38.4078 10.1544L38.9767 9.58555M38.9767 9.58555H41.7698M38.9767 9.58555H41.7698M41.7698 9.58555C42.084 9.58555 42.3389 9.84031 42.339 10.1543L41.7698 9.58555Z" fill="#C4DAEC" stroke="#422C77" stroke-width="0.3"/>
<path id="Vector_17" d="M42.813 13.0651H37.9321C37.6176 13.0651 37.3629 12.8103 37.3629 12.4962C37.3629 12.1821 37.6176 11.9273 37.9321 11.9273H42.813C43.1271 11.9273 43.3819 12.1821 43.3819 12.4962C43.3819 12.8103 43.1271 13.0651 42.813 13.0651Z" fill="#C4DAEC" stroke="#422C77" stroke-width="0.3"/>
</g>
<path id="Vector_18" d="M35.5035 18.2711H45.2425V23.7261H35.5035V18.2711Z" fill="#E5F4FF" stroke="#422C77" stroke-width="0.3"/>
<path id="Vector_19" d="M43.3121 18.4879H45.2427V23.7272H43.3121V18.4879Z" fill="#C4DAEC" stroke="#422C77" stroke-width="0.3"/>
<path id="Vector_20" d="M37.2566 15.9547H43.491C44.7559 15.9547 45.7905 16.9412 45.8679 18.1867H34.8793C34.9567 16.9412 35.9913 15.9547 37.2566 15.9547Z" fill="#FF6969" stroke="#422C77" stroke-width="0.3"/>
<path id="Vector_21" d="M44.0093 24.8983C44.0093 24.5524 43.8592 24.2414 43.6206 24.027H46.025C46.5065 24.027 46.8968 24.4172 46.8968 24.8983V26.9434H44.0093V24.8983Z" fill="#FF4848" stroke="#422C77" stroke-width="0.3"/>
<path id="Vector_22" d="M42.9806 18.1867C42.927 17.2141 42.3552 16.3796 41.5365 15.9547H43.4899C44.7552 15.9547 45.7901 16.9412 45.8676 18.1867H42.9806Z" fill="#FF4848" stroke="#422C77" stroke-width="0.3"/>
<path id="Vector_23" d="M37.9048 22.245C37.5902 22.245 37.3355 21.9902 37.3355 21.6761V20.5372C37.3355 20.2232 37.5902 19.9684 37.9048 19.9684C38.2189 19.9684 38.4737 20.2231 38.4737 20.5372V21.6761C38.4737 21.9903 38.2189 22.245 37.9048 22.245Z" fill="#0FD9FF" stroke="#422C77" stroke-width="0.3"/>
<path id="Vector_24" d="M40.2736 22.245C39.9594 22.245 39.7047 21.9903 39.7047 21.6761V20.5372C39.7047 20.2231 39.9594 19.9684 40.2736 19.9684C40.5881 19.9684 40.8428 20.2232 40.8428 20.5372V21.6761C40.8428 21.9902 40.5881 22.245 40.2736 22.245Z" fill="#0FD9FF" stroke="#422C77" stroke-width="0.3"/>
<path id="Vector_25" d="M42.6974 22.245C42.3833 22.245 42.1285 21.9903 42.1285 21.6761V20.5372C42.1285 20.2231 42.3833 19.9684 42.6974 19.9684C43.0119 19.9684 43.2666 20.2232 43.2666 20.5372V21.6761C43.2666 21.9902 43.0119 22.245 42.6974 22.245Z" fill="#0FD9FF" stroke="#422C77" stroke-width="0.3"/>
<path id="Vector_26" d="M47.121 32.6788C46.4241 34.8834 45.7012 37.1503 45.6371 37.2751L43.4904 37.255C42.7715 36.8646 42.4254 36.1783 41.2126 36.1783C40.0399 36.1783 39.6778 36.8189 39.0065 37.2147C38.7066 37.392 38.344 37.5205 37.8196 37.5205C37.2732 37.5205 36.9022 37.3814 36.5946 37.1928C35.9464 36.7947 35.5762 36.1783 34.427 36.1783C33.3137 36.1783 32.9314 36.7555 32.3206 37.1532H32.3195C31.9994 37.3623 31.6167 37.5205 31.0341 37.5205C30.428 37.5205 30.038 37.3488 29.7102 37.1294C29.1206 36.7324 28.7313 36.1783 27.6411 36.1783C26.5846 36.1783 26.1858 36.6987 25.6251 37.0917C25.2868 37.3297 24.888 37.5201 24.2482 37.5201C23.5857 37.5201 23.1821 37.3151 22.835 37.066C22.2933 36.6768 21.8898 36.1783 20.8563 36.1783C19.8544 36.1783 19.4442 36.646 18.9264 37.0305C18.569 37.2949 18.1585 37.5205 17.4634 37.5205C16.7452 37.5205 16.3314 37.2799 15.963 37.0027C15.4628 36.6251 15.0486 36.1783 14.0704 36.1783C13.1216 36.1783 12.7034 36.5984 12.2222 36.9694C11.8424 37.2598 11.4257 37.5205 10.6779 37.5205C9.90589 37.5205 9.48621 37.2433 9.09766 36.9404C8.63111 36.5772 8.21106 36.1783 7.28601 36.1783C6.38843 36.1783 5.96582 36.5533 5.51612 36.9071L3.59277 36.8895L2.5 33.4285C2.84314 33.6709 3.24304 33.8672 3.89307 33.8672C5.58899 33.8672 5.58899 32.5254 7.28601 32.5254C8.98194 32.5254 8.98194 33.8672 10.6779 33.8672C12.3745 33.8672 12.3745 32.5254 14.0704 32.5254C15.7664 32.5254 15.7664 33.8672 17.4634 33.8672C19.1593 33.8672 19.1593 32.5254 20.8563 32.5254C22.5523 32.5254 22.5523 33.8672 24.2482 33.8672C25.9441 33.8672 25.9441 32.5254 27.6411 32.5254C29.3371 32.5254 29.3371 33.8672 31.0341 33.8672C32.73 33.8672 32.73 32.5254 34.427 32.5254C36.1229 32.5254 36.1229 33.8672 37.8196 33.8672C39.5155 33.8672 39.5155 32.5254 41.2126 32.5254C42.9096 32.5254 42.9096 33.8672 44.6066 33.8672C45.9447 33.8672 46.2274 33.0315 47.121 32.6788Z" fill="#355D7C"/>
<path id="Vector_27" d="M0.5 38.5076C0.5 38.6002 0.573242 38.6757 0.665527 38.6808C2.19812 38.765 2.25342 40.0182 3.89258 40.0182C5.58887 40.0182 5.58887 38.6764 7.28516 38.6764C8.98145 38.6764 8.98145 40.0182 10.6777 40.0182C12.374 40.0182 12.374 38.6764 14.0703 38.6764C15.7666 38.6764 15.7666 40.0182 17.4629 40.0182C19.1592 40.0182 19.1592 38.6764 20.8558 38.6764C22.5518 38.6764 22.5518 40.0182 24.2481 40.0182C25.9444 40.0182 25.9444 38.6764 27.6406 38.6764C29.3369 38.6764 29.3369 40.0182 31.0332 40.0182C32.7299 40.0182 32.7299 38.6764 34.4262 38.6764C36.1228 38.6764 36.1228 40.0182 37.8191 40.0182C39.5158 40.0182 39.5158 38.6764 41.2121 38.6764C42.9087 38.6764 42.9087 40.0182 44.6057 40.0182C46.2453 40.0182 46.3002 38.765 47.8332 38.6808C47.9258 38.6757 47.9991 38.6002 47.9991 38.5076V35.2029C47.9991 35.1036 47.9152 35.0231 47.8156 35.0289C46.2998 35.1219 46.239 36.3656 44.6057 36.3656C42.9087 36.3656 42.9087 35.0234 41.2121 35.0234C39.5158 35.0234 39.5158 36.3656 37.8191 36.3656C36.1228 36.3656 36.1228 35.0234 34.4262 35.0234C32.7299 35.0234 32.7299 36.3656 31.0332 36.3656C29.3369 36.3656 29.3369 35.0234 27.6406 35.0234C25.9444 35.0234 25.9444 36.3656 24.2481 36.3656C22.5521 36.3656 22.5521 35.0234 20.8558 35.0234C19.1592 35.0234 19.1592 36.3656 17.4629 36.3656C15.7666 36.3656 15.7666 35.0234 14.0703 35.0234C12.374 35.0234 12.374 36.3656 10.6777 36.3656C8.98145 36.3656 8.98145 35.0234 7.28516 35.0234C5.58887 35.0234 5.58887 36.3656 3.89258 36.3656C2.25964 36.3656 2.19849 35.1219 0.683106 35.0289C0.583862 35.0231 0.5 35.1036 0.5 35.2029V38.5076Z" fill="#0FD9FF"/>
</g>
<defs>
<clipPath id="clip0_11440_34643">
<rect width="48" height="48" fill="white" transform="translate(0.5)"/>
</clipPath>
</defs>
</svg>
