<svg width="101" height="100" viewBox="0 0 101 100" fill="none" xmlns="http://www.w3.org/2000/svg">
<g id="empty-folder 1">
<g id="Empty Folder">
<path id="Vector" d="M15.0801 37.501V22.9176C15.0801 21.8126 15.5191 20.7528 16.3005 19.9714C17.0819 19.19 18.1417 18.751 19.2467 18.751H38.6842C39.5858 18.751 40.463 19.0434 41.1843 19.5843L47.3092 24.1676C48.0305 24.7086 48.9077 25.001 49.8092 25.001H81.7468C82.8518 25.001 83.9116 25.44 84.693 26.2214C85.4744 27.0028 85.9134 28.0626 85.9134 29.1676V37.501H15.0801Z" fill="url(#paint0_linear_9357_17574)"/>
<path id="Vector_2" d="M90.0803 39.9168L83.8303 77.4168C83.7504 77.9098 83.4961 78.3577 83.1137 78.6789C82.7313 79.0001 82.2463 79.1733 81.7469 79.1668H19.2469C18.7476 79.1733 18.2625 79.0001 17.8801 78.6789C17.4977 78.3577 17.2434 77.9098 17.1636 77.4168L10.9136 39.9168C10.8649 39.6167 10.8825 39.3095 10.9652 39.0169C11.0479 38.7243 11.1936 38.4533 11.3921 38.223C11.5907 37.9927 11.8372 37.8087 12.1144 37.6838C12.3917 37.5589 12.6929 37.4963 12.9969 37.5002H87.9969C88.301 37.4963 88.6022 37.5589 88.8794 37.6838C89.1567 37.8087 89.4032 37.9927 89.6017 38.223C89.8003 38.4533 89.946 38.7243 90.0286 39.0169C90.1113 39.3095 90.1289 39.6167 90.0803 39.9168Z" fill="url(#paint1_linear_9357_17574)"/>
<path id="Vector_3" d="M80.7685 5.64768C78.8935 3.41851 75.4977 1.75184 73.4144 3.71018C71.331 1.77268 67.9977 3.37685 66.0602 5.64768C63.831 8.33518 63.456 11.6268 65.206 13.106C66.956 14.5852 70.206 13.6685 72.4352 11.0227C74.0602 9.08518 72.7686 9.08518 74.3936 11.0227C76.6227 13.6685 79.8519 14.5852 81.6227 13.106C83.3935 11.6268 82.9977 8.33518 80.7685 5.64768Z" fill="#638AFF"/>
<path id="Vector_4" d="M73.4128 14.584C75.7139 14.584 77.5794 11.7858 77.5794 8.33398C77.5794 4.8822 75.7139 2.08398 73.4128 2.08398C71.1116 2.08398 69.2461 4.8822 69.2461 8.33398C69.2461 11.7858 71.1116 14.584 73.4128 14.584Z" fill="url(#paint2_linear_9357_17574)"/>
<path id="Vector_5" d="M83.8301 93.5003C83.8211 94.37 83.5567 95.2179 83.0698 95.9386C82.583 96.6593 81.895 97.2211 81.0915 97.554C80.288 97.887 79.4044 97.9764 78.5504 97.8113C77.6965 97.6462 76.9099 97.2338 76.2884 96.6253L65.0801 85.417L71.3301 79.167L82.5384 90.3753C82.9493 90.7852 83.2751 91.2723 83.4967 91.8087C83.7184 92.345 83.8317 92.92 83.8301 93.5003Z" fill="url(#paint3_linear_9357_17574)"/>
<path id="Vector_6" d="M67.7769 76.476L62.3852 81.8677C61.5717 82.6813 61.5717 84.0004 62.3852 84.814L63.608 86.0367C64.4215 86.8503 65.7406 86.8503 66.5542 86.0367L71.9459 80.645C72.7595 79.8314 72.7595 78.5123 71.9459 77.6987L70.7232 76.476C69.9096 75.6624 68.5905 75.6624 67.7769 76.476Z" fill="url(#paint4_linear_9357_17574)"/>
<path id="Vector_7" d="M52.5794 87.5007C64.0854 87.5007 73.4128 78.1733 73.4128 66.6673C73.4128 55.1614 64.0854 45.834 52.5794 45.834C41.0735 45.834 31.7461 55.1614 31.7461 66.6673C31.7461 78.1733 41.0735 87.5007 52.5794 87.5007Z" fill="url(#paint5_linear_9357_17574)"/>
<path id="Vector_8" d="M52.5788 83.3343C61.7835 83.3343 69.2454 75.8724 69.2454 66.6676C69.2454 57.4629 61.7835 50.001 52.5788 50.001C43.374 50.001 35.9121 57.4629 35.9121 66.6676C35.9121 75.8724 43.374 83.3343 52.5788 83.3343Z" fill="url(#paint6_linear_9357_17574)"/>
<path id="Vector_9" d="M52.5814 70.8358C49.6022 70.8358 49.8106 65.6066 53.2481 64.4816C53.6109 64.3591 53.9329 64.1389 54.1788 63.8453C54.4246 63.5516 54.5848 63.1959 54.6416 62.8172C54.6985 62.4385 54.6499 62.0514 54.5011 61.6985C54.3524 61.3457 54.1092 61.0406 53.7984 60.8169C53.4875 60.5932 53.1211 60.4595 52.7392 60.4305C52.3573 60.4015 51.9749 60.4783 51.6338 60.6525C51.2928 60.8267 51.0063 61.0915 50.806 61.4179C50.6056 61.7442 50.4991 62.1195 50.4981 62.5025C50.4981 63.055 50.2786 63.5849 49.8879 63.9756C49.4972 64.3663 48.9673 64.5858 48.4147 64.5858C44.4356 64.5858 46.3314 56.2525 52.5814 56.2525C54.0795 56.2198 55.5395 56.7264 56.6953 57.6801C57.8511 58.6337 58.6259 59.9708 58.8783 61.4479C59.1308 62.9249 58.8443 64.4435 58.0708 65.7269C57.2974 67.0103 56.0886 67.9732 54.6647 68.44V68.7525C54.6647 69.305 54.4452 69.8349 54.0545 70.2256C53.6638 70.6163 53.1339 70.8358 52.5814 70.8358Z" fill="#80CBFE"/>
<path id="Vector_10" d="M52.5794 77.0837C52.1674 77.0837 51.7646 76.9615 51.422 76.7326C51.0794 76.5036 50.8124 76.1783 50.6547 75.7976C50.497 75.4169 50.4557 74.998 50.5361 74.5939C50.6165 74.1898 50.8149 73.8185 51.1063 73.5272C51.3976 73.2358 51.7689 73.0374 52.173 72.957C52.5771 72.8766 52.996 72.9179 53.3767 73.0756C53.7574 73.2333 54.0827 73.5003 54.3117 73.8429C54.5406 74.1855 54.6628 74.5883 54.6628 75.0003C54.6628 75.5529 54.4433 76.0828 54.0526 76.4735C53.6619 76.8642 53.132 77.0837 52.5794 77.0837Z" fill="#80CBFE"/>
<path id="Vector_11" d="M52.5808 33.3343C48.6016 33.3343 50.4974 25.001 56.7474 25.001H69.2474C69.8 25.001 70.3299 24.7815 70.7206 24.3908C71.1113 24.0001 71.3308 23.4702 71.3308 22.9176V20.8343C71.3308 20.2818 71.5502 19.7519 71.9409 19.3612C72.3316 18.9705 72.8616 18.751 73.4141 18.751C73.9666 18.751 74.4965 18.9705 74.8872 19.3612C75.2779 19.7519 75.4974 20.2818 75.4974 20.8343V22.9176C75.4974 24.5752 74.8389 26.165 73.6668 27.3371C72.4947 28.5092 70.905 29.1676 69.2474 29.1676H56.7474C56.1949 29.1676 55.665 29.3871 55.2743 29.7778C54.8836 30.1685 54.6641 30.6984 54.6641 31.251C54.6641 31.8035 54.4446 32.3334 54.0539 32.7241C53.6632 33.1148 53.1333 33.3343 52.5808 33.3343Z" fill="#638AFF"/>
</g>
</g>
<defs>
<linearGradient id="paint0_linear_9357_17574" x1="50.4967" y1="37.501" x2="50.4967" y2="18.751" gradientUnits="userSpaceOnUse">
<stop stop-color="#54A5FF"/>
<stop offset="1" stop-color="#8AD3FE"/>
</linearGradient>
<linearGradient id="paint1_linear_9357_17574" x1="50.4969" y1="79.1668" x2="50.4969" y2="37.5002" gradientUnits="userSpaceOnUse">
<stop stop-color="#54A5FF"/>
<stop offset="1" stop-color="#8AD3FE"/>
</linearGradient>
<linearGradient id="paint2_linear_9357_17574" x1="77.5794" y1="8.33398" x2="69.2461" y2="8.33398" gradientUnits="userSpaceOnUse">
<stop stop-color="#FE9661"/>
<stop offset="1" stop-color="#FFB369"/>
</linearGradient>
<linearGradient id="paint3_linear_9357_17574" x1="65.0801" y1="88.542" x2="83.8301" y2="88.542" gradientUnits="userSpaceOnUse">
<stop stop-color="#FE9661"/>
<stop offset="1" stop-color="#FFB369"/>
</linearGradient>
<linearGradient id="paint4_linear_9357_17574" x1="61.7603" y1="81.2431" x2="72.5503" y2="81.2431" gradientUnits="userSpaceOnUse">
<stop stop-color="#FE9661"/>
<stop offset="1" stop-color="#FFB369"/>
</linearGradient>
<linearGradient id="paint5_linear_9357_17574" x1="31.7461" y1="66.6673" x2="73.4128" y2="66.6673" gradientUnits="userSpaceOnUse">
<stop stop-color="#FE9661"/>
<stop offset="1" stop-color="#FFB369"/>
</linearGradient>
<linearGradient id="paint6_linear_9357_17574" x1="35.9121" y1="66.6676" x2="69.2454" y2="66.6676" gradientUnits="userSpaceOnUse">
<stop stop-color="white"/>
<stop offset="1" stop-color="white"/>
</linearGradient>
</defs>
</svg>
