<svg width="20" height="20" viewBox="0 0 20 20" fill="none" xmlns="http://www.w3.org/2000/svg">
<path d="M2.79167 1.66666H10.2084C10.825 1.66666 11.3333 2.17499 11.3333 2.79166V4.02498C11.3333 4.47498 11.05 5.03333 10.775 5.31666L8.35838 7.44999C8.02504 7.73333 7.80001 8.29165 7.80001 8.74165V11.1583C7.80001 11.4917 7.57502 11.9417 7.29169 12.1167L6.50835 12.625C5.77502 13.075 4.76666 12.5667 4.76666 11.6667V8.69165C4.76666 8.29998 4.54168 7.79166 4.31668 7.50833L2.18335 5.25832C1.90002 4.97499 1.67503 4.47498 1.67503 4.13332V2.84166C1.66669 2.17499 2.175 1.66666 2.79167 1.66666Z" stroke="#777E90" stroke-width="1.5" stroke-miterlimit="10" stroke-linecap="round" stroke-linejoin="round"/>
<path d="M1.66669 10V12.5C1.66669 16.6667 3.33335 18.3333 7.50002 18.3333H12.5C16.6667 18.3333 18.3334 16.6667 18.3334 12.5V7.50001C18.3334 4.90001 17.6833 3.26667 16.175 2.41667C15.75 2.17501 14.9 1.99167 14.125 1.86667" stroke="#777E90" stroke-width="1.5" stroke-linecap="round" stroke-linejoin="round"/>
<path d="M10.8333 10.8333H15" stroke="#777E90" stroke-width="1.5" stroke-linecap="round" stroke-linejoin="round"/>
<path d="M9.16669 14.1667H15" stroke="#777E90" stroke-width="1.5" stroke-linecap="round" stroke-linejoin="round"/>
</svg>
