<svg width="100" height="100" viewBox="0 0 100 100" fill="none" xmlns="http://www.w3.org/2000/svg">
<g clip-path="url(#clip0_318_27843)">
<path d="M89.167 71.8505H83.0635V18.5928C83.0635 18.2564 83.4564 18.0786 83.7044 18.3014L83.8081 18.3945C87.2169 21.4554 89.167 25.843 89.167 30.4504V71.8505Z" fill="#5B5C6C"/>
<path d="M16.8228 71.8505H10.7186V18.5928C10.7186 18.2564 11.1115 18.0786 11.3602 18.3014L11.4632 18.3945C14.872 21.4554 16.8221 25.843 16.8221 30.4504V71.8505H16.8228Z" fill="#5B5C6C"/>
<path d="M83.7974 18.3945L83.6937 18.3014C83.445 18.0786 83.0528 18.2564 83.0528 18.5928V20.9526C85.0258 23.6877 86.1152 27.0073 86.1152 30.4504V71.8505H89.1563V30.4504C89.1563 25.843 87.2062 21.4554 83.7974 18.3945Z" fill="#464655"/>
<path d="M11.4632 18.3945L11.3602 18.3014C11.1115 18.0786 10.7186 18.2564 10.7186 18.5928V20.9526C12.6915 23.6877 13.7818 27.0073 13.7818 30.4504V71.8505H16.8228V30.4504C16.8228 25.843 14.872 21.4554 11.4632 18.3945Z" fill="#464655"/>
<path d="M19.3672 100H8.13526C7.82169 100 7.56687 99.7459 7.56687 99.4316V94.1261H19.9356V99.4316C19.9356 99.7459 19.6808 100 19.3672 100Z" fill="#5B5C6C"/>
<path d="M91.7503 99.8778H80.5191C80.2048 99.8778 79.9507 99.623 79.9507 99.3087V94.0032H92.3195V99.3087C92.3195 99.623 92.0646 99.8778 91.7503 99.8778Z" fill="#5B5C6C"/>
<path d="M19.3672 96.9405H8.13526C7.82169 96.9405 7.56687 96.6865 7.56687 96.3721V94.0635H19.9356V96.3721C19.9356 96.6857 19.6808 96.9405 19.3672 96.9405Z" fill="#464655"/>
<path d="M91.7503 96.8811H80.5191C80.2048 96.8811 79.9507 96.6262 79.9507 96.3119V94.004H92.3195V96.3119C92.3195 96.6262 92.0646 96.8811 91.7503 96.8811Z" fill="#464655"/>
<path d="M95.6199 94.2848H4.2664C2.12559 94.2848 0.39067 92.5491 0.39067 90.409V75.3051C0.39067 73.1651 2.12559 71.4302 4.2664 71.4302H95.6199C97.76 71.4302 99.4957 73.1651 99.4957 75.3051V90.409C99.4949 92.5491 97.76 94.2848 95.6199 94.2848Z" fill="#707384"/>
<path d="M95.6192 71.4302H83.7845C85.9253 71.4302 87.6609 73.1651 87.6609 75.3051V90.4098C87.6609 92.5498 85.9253 94.2848 83.7845 94.2848H95.6192C97.76 94.2848 99.4949 92.5498 99.4949 90.4098V75.3051C99.4957 73.1651 97.76 71.4302 95.6192 71.4302Z" fill="#5B5C6C"/>
<path d="M55.8716 77.0294H44.0147C43.0573 77.0294 42.2806 76.2527 42.2806 75.2952V71.4302H57.605V75.2952C57.605 76.2527 56.8291 77.0294 55.8716 77.0294Z" fill="#7DE6C4"/>
<path d="M52.9839 39.6468C52.9922 41.3329 51.6319 42.7047 49.9466 42.7131C48.262 42.7215 46.888 41.3635 46.8803 39.6766C46.8758 38.8252 47.2221 38.05 47.7875 37.4938C48.3337 36.9529 49.0852 36.6149 49.9176 36.6111C50.7599 36.6073 51.5259 36.9453 52.0805 37.4954C52.6344 38.0462 52.98 38.8053 52.9839 39.6468Z" fill="#54A1FF"/>
<path d="M49.8581 24.4079C47.0856 24.4209 44.4893 25.1724 42.2554 26.4755C40.5319 27.4803 40.2107 29.8339 41.613 31.2515L41.626 31.2652C42.6079 32.257 44.1322 32.444 45.3392 31.7428C46.6766 30.9661 48.23 30.5175 49.8878 30.5099C51.5831 30.5015 53.1738 30.9547 54.5402 31.752C55.7426 32.4531 57.2655 32.2601 58.2451 31.2713L58.258 31.2583C59.6649 29.8378 59.3361 27.4833 57.6095 26.4762C55.3337 25.148 52.6833 24.3934 49.8581 24.4079Z" fill="#54A1FF"/>
<path d="M49.7986 12.2039C43.5402 12.2345 37.7815 14.3547 33.1803 17.9C31.7391 19.0101 31.6139 21.1418 32.8934 22.4349L32.9056 22.4472C33.9806 23.5351 35.7002 23.6618 36.9125 22.7294C40.49 19.9752 44.9646 18.3296 49.8283 18.3059C54.7752 18.2815 59.3353 19.9394 62.9707 22.7424C64.18 23.6747 65.8989 23.545 66.9731 22.4601L66.9845 22.4487C68.2663 21.1547 68.1396 19.0223 66.6977 17.91C62.0239 14.3058 56.1584 12.1734 49.7986 12.2039Z" fill="#54A1FF"/>
<path d="M49.7391 0.000735035C40.1215 0.0472744 31.3202 3.51025 24.4805 9.23458C23.1133 10.3782 23.0133 12.4458 24.2668 13.713L24.2783 13.7245C25.3998 14.8582 27.195 14.9208 28.4188 13.8984C34.2018 9.06597 41.6428 6.14163 49.7688 6.10196C58.036 6.06228 65.6227 9.01409 71.4966 13.9404C72.7066 14.9559 74.4949 14.8674 75.6065 13.7458L75.618 13.7344C76.8738 12.4672 76.7723 10.3996 75.4051 9.25366C68.4639 3.43701 59.5055 -0.0473302 49.7391 0.000735035Z" fill="#54A1FF"/>
<path d="M49.9359 40.0672C48.7251 40.0733 47.6776 39.3714 47.1802 38.3514C46.9879 38.7534 46.8781 39.2021 46.8803 39.6766C46.8887 41.3635 48.262 42.7215 49.9474 42.7131C51.6319 42.7047 52.9922 41.3329 52.9839 39.6468C52.9816 39.1731 52.8687 38.7275 52.6733 38.3285C52.1843 39.3516 51.1452 40.0619 49.9359 40.0672Z" fill="#567DF4"/>
<path d="M58.2466 28.6125L58.2336 28.6255C57.254 29.6143 55.732 29.8073 54.5296 29.1061C53.1631 28.3096 51.5717 27.8557 49.8764 27.8641C48.2193 27.8717 46.666 28.3203 45.3285 29.097C44.1216 29.7981 42.5964 29.6112 41.6153 28.6194L41.6023 28.6057C41.3612 28.3623 41.1751 28.0899 41.0339 27.803C40.5075 28.9101 40.6654 30.294 41.613 31.2515L41.626 31.2645C42.6079 32.2571 44.1322 32.444 45.3392 31.7429C46.6766 30.9654 48.23 30.5176 49.8878 30.5092C51.5831 30.5008 53.1738 30.9547 54.5402 31.752C55.7426 32.4532 57.2655 32.2594 58.2451 31.2706L58.2581 31.2576C59.2132 30.2933 59.3666 28.8994 58.8272 27.7878C58.6853 28.083 58.4938 28.3623 58.2466 28.6125Z" fill="#567DF4"/>
<path d="M66.9731 19.8036L66.9617 19.8151C65.8874 20.8992 64.1685 21.0289 62.9593 20.0966C59.3246 17.2943 54.7638 15.6364 49.8169 15.6601C44.9539 15.6838 40.4785 17.3302 36.9011 20.0836C35.6896 21.0167 33.9691 20.8893 32.8941 19.8021L32.8819 19.7899C32.6409 19.5457 32.4501 19.2719 32.3082 18.9812C31.7757 20.0966 31.9573 21.489 32.8926 22.435L32.9048 22.4472C33.9798 23.5352 35.7002 23.6618 36.9118 22.7295C40.4892 19.9753 44.9646 18.3296 49.8276 18.306C54.7745 18.2816 59.3353 19.9394 62.9707 22.7425C64.1792 23.6748 65.8981 23.5451 66.9723 22.4602L66.9838 22.4487C67.9283 21.4958 68.1053 20.0897 67.559 18.9697C67.4156 19.2696 67.2218 19.5526 66.9731 19.8036Z" fill="#567DF4"/>
<path d="M76.1909 10.257C76.0475 10.5568 75.8552 10.8383 75.6065 11.0893L75.5958 11.1C74.4835 12.2223 72.6959 12.31 71.4859 11.2953C65.612 6.36827 58.0254 3.41646 49.7574 3.45689C41.6321 3.49656 34.1904 6.42015 28.4081 11.2534C27.1843 12.2757 25.3884 12.2124 24.2668 11.0787L24.2554 11.0672C24.0151 10.8238 23.8259 10.5515 23.684 10.2615C23.1514 11.3808 23.3322 12.7686 24.2668 13.7131L24.2775 13.7245C25.399 14.8582 27.195 14.9208 28.4188 13.8985C34.2011 9.06602 41.6428 6.14167 49.7681 6.102C58.036 6.06233 65.6227 9.01414 71.4966 13.9404C72.7066 14.9559 74.4949 14.8674 75.6065 13.7459L75.618 13.7344C76.5602 12.7838 76.7387 11.3823 76.1909 10.257Z" fill="#567DF4"/>
<path d="M12.2444 85.839C12.2444 86.6813 11.5616 87.3649 10.7186 87.3649C9.87552 87.3649 9.19269 86.6813 9.19269 85.839C9.19269 84.996 9.87552 84.3124 10.7186 84.3124C11.5616 84.3124 12.2444 84.996 12.2444 85.839Z" fill="#FFB96A"/>
<path d="M18.3487 85.839C18.3487 86.6813 17.6651 87.3649 16.8228 87.3649C15.9798 87.3649 15.2962 86.6813 15.2962 85.839C15.2962 84.996 15.9798 84.3124 16.8228 84.3124C17.6651 84.3124 18.3487 84.996 18.3487 85.839Z" fill="#A7D16C"/>
<path d="M87.6609 85.839C87.6609 86.6813 86.9774 87.3649 86.1351 87.3649C85.292 87.3649 84.6084 86.6813 84.6084 85.839C84.6084 84.996 85.292 84.3124 86.1351 84.3124C86.9774 84.3124 87.6609 84.996 87.6609 85.839Z" fill="#A09BFF"/>
<path d="M93.8453 85.839C93.8453 86.6813 93.1617 87.3649 92.3195 87.3649C91.4764 87.3649 90.7928 86.6813 90.7928 85.839C90.7928 84.996 91.4764 84.3124 92.3195 84.3124C93.1617 84.3124 93.8453 84.996 93.8453 85.839Z" fill="#A09BFF"/>
<path d="M66.1178 84.3826H33.7677C32.9254 84.3826 32.2418 85.0654 32.2418 85.9077C32.2418 86.7507 32.9254 87.4336 33.7677 87.4336H66.1178C66.9609 87.4336 67.6445 86.7507 67.6445 85.9077C67.6445 85.0654 66.9609 84.3826 66.1178 84.3826Z" fill="#3B3B47"/>
</g>
<defs>
<clipPath id="clip0_318_27843">
<rect width="99.9999" height="100" fill="white"/>
</clipPath>
</defs>
</svg>
