<svg xmlns="http://www.w3.org/2000/svg" width="20" height="20" viewBox="0 0 20 20" fill="none">
    <path d="M14.825 18.95H5.175C2.89166 18.95 1.04166 17.0916 1.04166 14.8083V8.6333C1.04166 7.49997 1.74166 6.07497 2.64166 5.37497L7.13333 1.87497C8.48333 0.82497 10.6417 0.77497 12.0417 1.7583L17.1917 5.36664C18.1833 6.0583 18.9583 7.54164 18.9583 8.74997V14.8166C18.9583 17.0916 17.1083 18.95 14.825 18.95ZM7.9 2.8583L3.40833 6.3583C2.81666 6.82497 2.29166 7.8833 2.29166 8.6333V14.8083C2.29166 16.4 3.58333 17.7 5.175 17.7H14.825C16.4167 17.7 17.7083 16.4083 17.7083 14.8166V8.74997C17.7083 7.94997 17.1333 6.84164 16.475 6.39164L11.325 2.7833C10.375 2.11664 8.80833 2.14997 7.9 2.8583Z" fill="#777E91"/>
    <path d="M6.24995 14.375C6.09162 14.375 5.93329 14.3167 5.80829 14.1917C5.56662 13.95 5.56662 13.55 5.80829 13.3084L8.47495 10.6417C8.60829 10.5084 8.78329 10.4417 8.97495 10.4584C9.15829 10.475 9.32495 10.575 9.43329 10.7334L10.3416 12.1L13.3 9.1417C13.5416 8.90003 13.9416 8.90003 14.1833 9.1417C14.425 9.38337 14.425 9.78337 14.1833 10.025L10.6833 13.525C10.55 13.6584 10.375 13.725 10.1833 13.7084C9.99995 13.6917 9.83329 13.5917 9.72495 13.4334L8.81662 12.0667L6.69162 14.1917C6.56662 14.3167 6.40829 14.375 6.24995 14.375Z" fill="#777E91"/>
    <path d="M13.75 11.875C13.4083 11.875 13.125 11.5917 13.125 11.25V10.2084H12.0833C11.7417 10.2084 11.4583 9.92504 11.4583 9.58337C11.4583 9.24171 11.7417 8.95837 12.0833 8.95837H13.75C14.0917 8.95837 14.375 9.24171 14.375 9.58337V11.25C14.375 11.5917 14.0917 11.875 13.75 11.875Z" fill="#777E91"/>
</svg>