<svg width="194" height="80" viewBox="0 0 194 80" fill="none" xmlns="http://www.w3.org/2000/svg">
<g id="Group 1686562551">
<g id="Group 8166">
<g id="Group 8165">
<g id="EDS">
<path id="Vector" d="M108.583 23.3568C106.013 23.3568 104.025 21.2827 102.726 19.0642C102.088 17.9733 101.231 17.0319 100.156 16.24C97.8591 14.5491 94.7423 13.7037 90.8053 13.7037C88.1302 13.7037 85.8715 14.0822 84.0292 14.8394C82.1869 15.5712 80.7736 16.5933 79.7894 17.9056C78.8304 19.218 78.3509 20.707 78.3509 22.3726C78.3004 23.7606 78.5906 24.972 79.2215 26.0067C79.8777 27.0414 80.7736 27.9374 81.9093 28.6945C83.0449 29.4263 84.3573 30.0699 85.8463 30.6251C87.3352 31.1551 88.9252 31.6093 90.616 31.9879L97.5815 33.6535C100.963 34.4106 104.067 35.4201 106.894 36.682C109.72 37.9438 112.168 39.4959 114.238 41.3382C116.307 43.1805 117.91 45.3509 119.046 47.8493C120.206 50.3478 120.8 53.2122 120.825 56.4425C120.8 61.1871 119.588 65.3007 117.191 68.7834C114.818 72.2409 111.386 74.9286 106.894 76.8467C102.427 78.7394 97.0389 79.6858 90.7296 79.6858C84.4708 79.6858 79.0196 78.7268 74.376 76.8088C69.7577 74.8908 66.1488 72.0516 63.5494 68.2913C61.8 65.7187 60.6159 62.7323 59.9971 59.3321C59.4947 56.5718 61.8075 54.2469 64.6132 54.2469H70.6885C73.3184 54.2469 75.3489 56.371 76.4241 58.771C76.7443 59.486 77.1342 60.1483 77.5938 60.7581C78.9313 62.4742 80.7105 63.7739 82.9314 64.6572C85.1775 65.5152 87.7138 65.9443 90.5403 65.9443C93.3164 65.9443 95.7265 65.5405 97.7707 64.7329C99.8402 63.9253 101.443 62.8023 102.578 61.3638C103.714 59.9252 104.282 58.2722 104.282 56.4047C104.282 54.6633 103.765 53.1996 102.73 52.0135C101.72 50.8273 100.231 49.8178 98.2629 48.985C96.3196 48.1522 93.9347 47.3951 91.1082 46.7137L82.6664 44.5938C76.13 43.0038 70.969 40.518 67.1835 37.1362C63.3979 33.7545 61.5178 29.1992 61.543 23.4704C61.5178 18.7763 62.767 14.6753 65.2907 11.1674C67.8397 7.65943 71.335 4.92122 75.7767 2.95273C80.2184 0.984242 85.2658 0 90.9189 0C96.6729 0 101.695 0.984242 105.985 2.95273C110.301 4.92122 113.657 7.65943 116.055 11.1674C117.539 13.3383 118.578 15.7218 119.172 18.318C119.796 21.041 117.476 23.3568 114.682 23.3568H108.583Z" fill="white"/>
<path id="Vector_2" d="M155.308 77.5281H130.825C129.168 77.5281 127.825 76.1849 127.825 74.5281V3C127.825 1.34314 129.168 0 130.825 0H155.535C163.333 0 170.046 1.55208 175.674 4.65623C181.302 7.73514 185.63 12.1642 188.659 17.9435C191.712 23.7228 193.239 30.6377 193.239 38.6883C193.239 46.7642 191.712 53.7043 188.659 59.5088C185.63 65.3133 181.277 69.7677 175.598 72.8718C169.945 75.976 163.182 77.5281 155.308 77.5281ZM144.216 58.4837C144.216 61.2451 146.455 63.4837 149.216 63.4837H154.626C159.472 63.4837 163.548 62.6256 166.854 60.9095C170.185 59.1681 172.683 56.4804 174.349 52.8463C176.04 49.1869 176.885 44.4676 176.885 38.6883C176.885 32.9595 176.04 28.2781 174.349 24.6439C172.683 21.0098 170.198 18.3347 166.892 16.6186C163.586 14.9024 159.51 14.0444 154.664 14.0444H149.216C146.455 14.0444 144.216 16.283 144.216 19.0444V58.4837Z" fill="white"/>
</g>
<path id="Union" d="M3 77.5281C1.34315 77.5281 0 76.1849 0 74.5281V3C0 1.34314 1.34315 0 3 0H49.2406C50.8974 0 52.2406 1.34315 52.2406 3V10.5144C52.2406 12.1713 50.8974 13.5144 49.2406 13.5144H16.3914V28.9879C16.3914 30.6448 17.7346 31.9879 19.3914 31.9879H46.5528C48.2097 31.9879 49.5528 33.331 49.5528 34.9879V42.5023C49.5528 44.1592 48.2097 45.5023 46.5528 45.5023H17.3914C16.8391 45.5023 16.3914 45.95 16.3914 46.5023V62.0136C16.3914 63.1182 17.2869 64.0136 18.3914 64.0136H49.392C51.0489 64.0136 52.392 65.3568 52.392 67.0136V74.5281C52.392 76.1849 51.0489 77.5281 49.392 77.5281H3Z" fill="white"/>
</g>
</g>
</g>
</svg>
