<svg width="189" height="36" viewBox="0 0 189 36" fill="none" xmlns="http://www.w3.org/2000/svg">
<g id="Monitoring">
<path id="Vector" d="M179.39 35.5194C177.627 35.5194 176.115 35.2767 174.855 34.7912C173.603 34.3143 172.606 33.6628 171.865 32.8367C171.124 32.0106 170.643 31.0823 170.422 30.0518L175.455 29.3748C175.608 29.7665 175.851 30.1327 176.183 30.4734C176.515 30.814 176.954 31.0866 177.499 31.291C178.053 31.5039 178.725 31.6103 179.517 31.6103C180.701 31.6103 181.676 31.3208 182.443 30.7416C183.218 30.171 183.605 29.2129 183.605 27.8673V24.2777H183.375C183.137 24.8227 182.779 25.338 182.302 25.8234C181.825 26.3088 181.212 26.7049 180.463 27.0114C179.713 27.318 178.819 27.4713 177.78 27.4713C176.307 27.4713 174.965 27.1307 173.756 26.4494C172.555 25.7595 171.597 24.7078 170.882 23.294C170.175 21.8718 169.821 20.0748 169.821 17.9031C169.821 15.6803 170.183 13.8237 170.907 12.3334C171.631 10.843 172.594 9.72733 173.794 8.9864C175.004 8.24547 176.328 7.875 177.767 7.875C178.866 7.875 179.786 8.06236 180.527 8.43709C181.268 8.80329 181.864 9.26318 182.315 9.81675C182.775 10.3618 183.128 10.8983 183.375 11.4264H183.58V8.13049H188.983V27.944C188.983 29.6132 188.575 31.0099 187.757 32.1341C186.939 33.2583 185.807 34.1014 184.359 34.6635C182.92 35.2341 181.263 35.5194 179.39 35.5194ZM179.505 23.3834C180.382 23.3834 181.123 23.1663 181.727 22.7319C182.341 22.2891 182.809 21.6589 183.133 20.8413C183.465 20.0152 183.631 19.0273 183.631 17.8776C183.631 16.7278 183.469 15.7314 183.145 14.8883C182.822 14.0366 182.353 13.3766 181.74 12.9082C181.127 12.4398 180.382 12.2056 179.505 12.2056C178.61 12.2056 177.857 12.4483 177.244 12.9338C176.63 13.4107 176.166 14.075 175.851 14.9266C175.536 15.7783 175.378 16.7619 175.378 17.8776C175.378 19.0102 175.536 19.9896 175.851 20.8157C176.175 21.6333 176.639 22.2678 177.244 22.7192C177.857 23.162 178.61 23.3834 179.505 23.3834Z" fill="white"/>
<path id="Vector_2" d="M153.614 16.4085V27.7524H148.172V8.13049H153.358V11.5924H153.588C154.022 10.4512 154.751 9.54848 155.773 8.8842C156.794 8.2114 158.034 7.875 159.49 7.875C160.853 7.875 162.041 8.17308 163.054 8.76923C164.068 9.36538 164.855 10.217 165.417 11.3242C165.979 12.4228 166.261 13.7343 166.261 15.2588V27.7524H160.818V16.2296C160.827 15.0288 160.52 14.092 159.899 13.4192C159.277 12.7379 158.421 12.3972 157.331 12.3972C156.599 12.3972 155.951 12.5548 155.389 12.8699C154.836 13.185 154.401 13.6449 154.086 14.2496C153.78 14.8457 153.622 15.5653 153.614 16.4085Z" fill="white"/>
<path id="Vector_3" d="M138.37 27.7521V8.13024H143.812V27.7521H138.37ZM141.104 5.60085C140.295 5.60085 139.601 5.33258 139.022 4.79605C138.451 4.251 138.166 3.59949 138.166 2.84152C138.166 2.09208 138.451 1.44909 139.022 0.912551C139.601 0.367498 140.295 0.0949707 141.104 0.0949707C141.913 0.0949707 142.603 0.367498 143.173 0.912551C143.753 1.44909 144.042 2.09208 144.042 2.84152C144.042 3.59949 143.753 4.251 143.173 4.79605C142.603 5.33258 141.913 5.60085 141.104 5.60085Z" fill="white"/>
<path id="Vector_4" d="M123.651 27.7521V8.13016H128.926V11.5538H129.131C129.489 10.3359 130.089 9.41615 130.932 8.79445C131.775 8.16423 132.746 7.84912 133.845 7.84912C134.117 7.84912 134.411 7.86615 134.726 7.90022C135.041 7.93429 135.318 7.98113 135.557 8.04074V12.8696C135.301 12.7929 134.948 12.7248 134.496 12.6652C134.045 12.6056 133.632 12.5757 133.257 12.5757C132.457 12.5757 131.741 12.7503 131.111 13.0995C130.489 13.4402 129.995 13.9171 129.629 14.5303C129.271 15.1435 129.093 15.8503 129.093 16.6509V27.7521H123.651Z" fill="white"/>
<path id="Vector_5" d="M110.454 28.1356C108.47 28.1356 106.754 27.7141 105.306 26.8709C103.867 26.0193 102.755 24.8355 101.972 23.3196C101.188 21.7951 100.797 20.028 100.797 18.0181C100.797 15.9912 101.188 14.2197 101.972 12.7038C102.755 11.1794 103.867 9.99559 105.306 9.15246C106.754 8.30082 108.47 7.875 110.454 7.875C112.439 7.875 114.15 8.30082 115.59 9.15246C117.038 9.99559 118.153 11.1794 118.937 12.7038C119.72 14.2197 120.112 15.9912 120.112 18.0181C120.112 20.028 119.72 21.7951 118.937 23.3196C118.153 24.8355 117.038 26.0193 115.59 26.8709C114.15 27.7141 112.439 28.1356 110.454 28.1356ZM110.48 23.92C111.383 23.92 112.136 23.6645 112.741 23.1535C113.346 22.634 113.801 21.9271 114.108 21.0329C114.423 20.1387 114.581 19.121 114.581 17.9798C114.581 16.8386 114.423 15.8208 114.108 14.9266C113.801 14.0324 113.346 13.3255 112.741 12.806C112.136 12.2865 111.383 12.0268 110.48 12.0268C109.569 12.0268 108.802 12.2865 108.18 12.806C107.567 13.3255 107.103 14.0324 106.788 14.9266C106.481 15.8208 106.328 16.8386 106.328 17.9798C106.328 19.121 106.481 20.1387 106.788 21.0329C107.103 21.9271 107.567 22.634 108.18 23.1535C108.802 23.6645 109.569 23.92 110.48 23.92Z" fill="white"/>
<path id="Vector_6" d="M98.2545 8.13052V12.2184H86.438V8.13052H98.2545ZM89.1207 3.42944H94.5627V21.7228C94.5627 22.2252 94.6393 22.617 94.7926 22.898C94.9459 23.1706 95.1588 23.3622 95.4313 23.4729C95.7124 23.5836 96.036 23.639 96.4022 23.639C96.6577 23.639 96.9132 23.6177 97.1687 23.5751C97.4242 23.524 97.6201 23.4857 97.7563 23.4601L98.6122 27.5097C98.3397 27.5949 97.9565 27.6928 97.4625 27.8035C96.9686 27.9227 96.3682 27.9951 95.6613 28.0207C94.3498 28.0718 93.2 27.8972 92.2121 27.4969C91.2327 27.0966 90.4705 26.4749 89.9255 25.6318C89.3804 24.7887 89.1121 23.7241 89.1207 22.4381V3.42944Z" fill="white"/>
<path id="Vector_7" d="M78.0162 27.7521V8.13024H83.4582V27.7521H78.0162ZM80.75 5.60085C79.941 5.60085 79.2469 5.33258 78.6677 4.79605C78.0971 4.251 77.8118 3.59949 77.8118 2.84152C77.8118 2.09208 78.0971 1.44909 78.6677 0.912551C79.2469 0.367498 79.941 0.0949707 80.75 0.0949707C81.5591 0.0949707 82.2489 0.367498 82.8195 0.912551C83.3986 1.44909 83.6882 2.09208 83.6882 2.84152C83.6882 3.59949 83.3986 4.251 82.8195 4.79605C82.2489 5.33258 81.5591 5.60085 80.75 5.60085Z" fill="white"/>
<path id="Vector_8" d="M61.0803 16.4085V27.7524H55.6383V8.13049H60.8248V11.5924H61.0547C61.4891 10.4512 62.2172 9.54848 63.2392 8.8842C64.2612 8.2114 65.5003 7.875 66.9566 7.875C68.3193 7.875 69.5073 8.17308 70.5208 8.76923C71.5342 9.36538 72.322 10.217 72.8841 11.3242C73.4462 12.4228 73.7272 13.7343 73.7272 15.2588V27.7524H68.2852V16.2296C68.2937 15.0288 67.9871 14.092 67.3654 13.4192C66.7437 12.7379 65.8878 12.3972 64.7977 12.3972C64.0653 12.3972 63.418 12.5548 62.856 12.8699C62.3024 13.185 61.8681 13.6449 61.5529 14.2496C61.2463 14.8457 61.0888 15.5653 61.0803 16.4085Z" fill="white"/>
<path id="Vector_9" d="M42.442 28.1356C40.4576 28.1356 38.7416 27.7141 37.2938 26.8709C35.8545 26.0193 34.7431 24.8355 33.9596 23.3196C33.1761 21.7951 32.7843 20.028 32.7843 18.0181C32.7843 15.9912 33.1761 14.2197 33.9596 12.7038C34.7431 11.1794 35.8545 9.99559 37.2938 9.15246C38.7416 8.30082 40.4576 7.875 42.442 7.875C44.4263 7.875 46.1381 8.30082 47.5774 9.15246C49.0252 9.99559 50.1408 11.1794 50.9243 12.7038C51.7079 14.2197 52.0996 15.9912 52.0996 18.0181C52.0996 20.028 51.7079 21.7951 50.9243 23.3196C50.1408 24.8355 49.0252 26.0193 47.5774 26.8709C46.1381 27.7141 44.4263 28.1356 42.442 28.1356ZM42.4675 23.92C43.3703 23.92 44.124 23.6645 44.7286 23.1535C45.3333 22.634 45.7889 21.9271 46.0955 21.0329C46.4106 20.1387 46.5682 19.121 46.5682 17.9798C46.5682 16.8386 46.4106 15.8208 46.0955 14.9266C45.7889 14.0324 45.3333 13.3255 44.7286 12.806C44.124 12.2865 43.3703 12.0268 42.4675 12.0268C41.5563 12.0268 40.7898 12.2865 40.1681 12.806C39.5549 13.3255 39.0907 14.0324 38.7756 14.9266C38.469 15.8208 38.3157 16.8386 38.3157 17.9798C38.3157 19.121 38.469 20.1387 38.7756 21.0329C39.0907 21.9271 39.5549 22.634 40.1681 23.1535C40.7898 23.6645 41.5563 23.92 42.4675 23.92Z" fill="white"/>
<path id="Vector_10" d="M0.761467 2.27515H7.58314L14.7881 19.8531H15.0946L22.2996 2.27515H29.1212V28.4377H23.7559V11.409H23.5387L16.7681 28.3099H13.1146L6.344 11.3452H6.12683V28.4377H0.761467V2.27515Z" fill="white"/>
</g>
</svg>
