<svg width="48" height="48" viewBox="0 0 48 48" fill="none" xmlns="http://www.w3.org/2000/svg">
<circle cx="24" cy="24" r="22.5" stroke="#3772FF" stroke-width="3"/>
<path d="M22.2154 26.243C21.7287 22.6043 26.6653 21.7931 26.6653 19.545C26.6653 18.1312 25.5528 17.3432 23.7219 17.3432C22.3081 17.3432 21.1493 17.9921 20.0136 19.1742L18.1131 17.4359C19.5964 15.7208 21.636 14.5852 24.1159 14.5852C27.4765 14.5852 29.9332 16.1612 29.9332 19.2437C29.9332 22.6275 24.8575 23.0447 25.2284 26.243H22.2154ZM23.7451 32.4312C22.5399 32.4312 21.6823 31.5737 21.6823 30.3685C21.6823 29.1633 22.563 28.329 23.7451 28.329C24.9039 28.329 25.7846 29.1633 25.7846 30.3685C25.7846 31.5737 24.9039 32.4312 23.7451 32.4312Z" fill="#3772FF"/>
</svg>
