<svg width="37" height="36" viewBox="0 0 37 36" fill="none" xmlns="http://www.w3.org/2000/svg">
<g id="rfid 1" clip-path="url(#clip0_11440_34708)">
<g id="Group">
<g id="Group_2">
<path id="Vector" d="M31.9303 13.9453H18.5007L17.5918 24.9726L18.5007 36H31.9303C34.4504 36 36.5007 33.9498 36.5007 31.4297V18.5156C36.5007 15.9956 34.4504 13.9453 31.9303 13.9453Z" fill="#0CBF65"/>
<path id="Vector_2" d="M5.07031 13.9453C2.55024 13.9453 0.5 15.9956 0.5 18.5156V31.4297C0.5 33.9498 2.55024 36 5.07031 36H18.5V13.9453H5.07031Z" fill="#0ED678"/>
</g>
<g id="Group_3">
<g id="Group_4">
<path id="Vector_3" d="M7.78906 26.5982H8.63991L9.83663 30.3182H12.0525L10.6646 26.0042C11.4519 25.4462 11.964 24.5475 11.964 23.5354C11.964 21.8466 10.5391 20.4727 8.78757 20.4727H5.67969V30.3182H7.78906V26.5982ZM7.78906 22.582H8.78764C9.3661 22.582 9.8547 23.0187 9.8547 23.5354C9.8547 24.0522 9.3661 24.4888 8.78764 24.4888H7.78906V22.582Z" fill="#FFFBF5"/>
</g>
<path id="Vector_4" d="M18.4998 22.582V20.4727H13.5996V30.3164H15.709V26.3623H17.5348V24.2529H15.709V22.582H18.4998Z" fill="#FFFBF5"/>
<g id="Group_5">
<path id="Vector_5" d="M20.3418 20.4727H22.4512V30.3164H20.3418V20.4727Z" fill="#EFE2DD"/>
<path id="Vector_6" d="M24.2734 30.3227V20.4727H26.9206C29.4196 20.4727 31.0987 22.4506 31.0987 25.3945C31.0987 28.1951 29.3762 30.2578 27.0031 30.2992C26.3796 30.3101 24.2734 30.3227 24.2734 30.3227ZM26.3828 22.5821V28.1981C26.5888 28.1959 26.7939 28.1932 26.9663 28.1902C27.9733 28.1726 28.9893 27.3013 28.9893 25.3946C28.9893 24.7348 28.8401 22.5821 26.9206 22.5821H26.3828Z" fill="#EFE2DD"/>
</g>
</g>
<g id="Group_6">
<path id="Vector_7" d="M18.5001 0L17.7969 1.05961L18.5001 2.10938C22.8165 2.10938 26.62 4.34552 28.8144 7.71975L30.5839 6.57288C28.013 2.61977 23.5569 0 18.5001 0Z" fill="#FD8C02"/>
<path id="Vector_8" d="M18.4999 0C13.4429 0 8.98692 2.6197 6.41602 6.57288L8.18557 7.71975C10.38 4.34552 14.1835 2.10938 18.4999 2.10938V0Z" fill="#FDAE02"/>
</g>
<g id="Group_7">
<path id="Vector_9" d="M24.6855 10.3899L26.455 9.24305C24.7626 6.64064 21.8291 4.91602 18.5001 4.91602L17.7969 5.99904L18.5001 7.02539C21.0886 7.02539 23.3696 8.36639 24.6855 10.3899Z" fill="#FDAE02"/>
<path id="Vector_10" d="M10.5449 9.24312L12.3144 10.39C13.6304 8.36639 15.9114 7.02539 18.4999 7.02539V4.91602C15.1709 4.91602 12.2374 6.64064 10.5449 9.24312Z" fill="#FDCB02"/>
</g>
<g id="Group_8">
<path id="Vector_11" d="M22.733 14.0708C22.733 11.7368 20.8341 9.83789 18.5001 9.83789L17.7969 14.0708L18.5001 18.3037C20.8341 18.3037 22.733 16.4049 22.733 14.0708Z" fill="#FFDC9E"/>
<path id="Vector_12" d="M14.2676 14.0708C14.2676 16.4049 16.1664 18.3038 18.5005 18.3038V9.83789C16.1664 9.83789 14.2676 11.7368 14.2676 14.0708Z" fill="#FFEBBA"/>
</g>
</g>
</g>
<defs>
<clipPath id="clip0_11440_34708">
<rect width="36" height="36" fill="white" transform="translate(0.5)"/>
</clipPath>
</defs>
</svg>
