<svg width="20" height="20" viewBox="0 0 20 20" fill="none" xmlns="http://www.w3.org/2000/svg">
<path fill-rule="evenodd" clip-rule="evenodd" d="M15 9.16667C15 12.3883 12.3883 15 9.16669 15C5.94503 15 3.33335 12.3883 3.33335 9.16667C3.33335 5.94501 5.94503 3.33334 9.16669 3.33334C12.3883 3.33334 15 5.94501 15 9.16667ZM15.0266 13.8481C16.053 12.565 16.6667 10.9375 16.6667 9.16667C16.6667 5.02454 13.3088 1.66667 9.16669 1.66667C5.02455 1.66667 1.66669 5.02454 1.66669 9.16667C1.66669 13.3088 5.02455 16.6667 9.16669 16.6667C10.9375 16.6667 12.565 16.0529 13.8481 15.0266L16.0774 17.2559C16.4029 17.5814 16.9305 17.5814 17.2559 17.2559C17.5814 16.9305 17.5814 16.4029 17.2559 16.0774L15.0266 13.8481Z" fill="#777E90"/>
</svg>
