<svg width="27" height="24" viewBox="0 0 27 24" fill="none" xmlns="http://www.w3.org/2000/svg">
<path d="M20.0187 11.2053C20.0187 15.6085 16.8221 19.7326 12.4549 20.9392C12.1578 21.0203 11.8336 21.0203 11.5364 20.9392C7.16925 19.7326 3.97266 15.6085 3.97266 11.2053V7.25235C3.97266 6.51398 4.53095 5.67656 5.2243 5.39742L10.2398 3.34442C11.3654 2.88519 12.635 2.88519 13.7606 3.34442L18.7761 5.39742C19.4604 5.67656 20.0277 6.51398 20.0277 7.25235L20.0187 11.2053Z" stroke="#99A2B3" stroke-width="1.5" stroke-linecap="round" stroke-linejoin="round"/>
<path d="M11.9954 12.4485C12.99 12.4485 13.7963 11.6422 13.7963 10.6476C13.7963 9.65297 12.99 8.84668 11.9954 8.84668C11.0008 8.84668 10.1945 9.65297 10.1945 10.6476C10.1945 11.6422 11.0008 12.4485 11.9954 12.4485Z" stroke="#99A2B3" stroke-width="1.5" stroke-miterlimit="10" stroke-linecap="round" stroke-linejoin="round"/>
<path d="M11.9954 12.4482V15.1496" stroke="#99A2B3" stroke-width="1.5" stroke-miterlimit="10" stroke-linecap="round" stroke-linejoin="round"/>
<path d="M23.5441 6.81818L23.6329 5.44389L22.4823 6.21449L22.0065 5.37642L23.2458 4.77273L22.0065 4.16903L22.4823 3.33097L23.6329 4.10156L23.5441 2.72727H24.4994L24.4071 4.10156L25.5576 3.33097L26.0335 4.16903L24.7977 4.77273L26.0335 5.37642L25.5576 6.21449L24.4071 5.44389L24.4994 6.81818H23.5441Z" fill="#99A2B3"/>
</svg>
