<svg width="49" height="48" viewBox="0 0 49 48" fill="none" xmlns="http://www.w3.org/2000/svg">
<g id="shipped 1" clip-path="url(#clip0_11440_34732)">
<path id="Vector" d="M34.1208 9.57031H5.26064C4.81795 9.57031 4.45898 9.92928 4.45898 10.372V27.207H6.86395C7.74942 27.207 8.46727 27.9248 8.46727 28.8103C8.46727 29.6958 7.74933 30.4137 6.86395 30.4137H4.45898V32.8186C4.45898 33.2613 4.81795 33.6203 5.26064 33.6203H34.9225V10.372C34.9225 9.92928 34.5635 9.57031 34.1208 9.57031Z" fill="#B4E66E"/>
<path id="Vector_2" d="M44.5419 22.3965H34.9219V33.6199H47.7486V25.6031C47.7486 23.8322 46.3129 22.3965 44.5419 22.3965Z" fill="#FFDC64"/>
<path id="Vector_3" d="M34.9219 24.8027H43.6067C44.4923 24.8027 45.21 25.5205 45.21 26.406V33.621H34.9219V24.8027Z" fill="#FFC850"/>
<path id="Vector_4" d="M41.3352 12.7773H34.9219V15.9841H43.7403V15.1824C43.7403 13.8541 42.6635 12.7773 41.3352 12.7773Z" fill="#FFDC64"/>
<path id="Vector_5" d="M44.5419 22.3977L42.9385 15.9844H34.9219V22.3977H44.5419Z" fill="#B4E6FF"/>
<path id="Vector_6" d="M44.541 25.6035H47.7477V28.8102H46.1444C45.2589 28.8102 44.5411 28.0925 44.5411 27.2069V25.6035H44.541Z" fill="#F1F4FB"/>
<path id="Vector_7" d="M40.5336 28.0078C38.1174 28.0078 36.0154 29.3452 34.9219 31.3188V33.6195H46.8915C46.4962 30.4567 43.8035 28.0078 40.5336 28.0078Z" fill="#E1A546"/>
<path id="Vector_8" d="M45.209 30.0391V33.6205H46.8906C46.7185 32.2434 46.1103 31.0023 45.209 30.0391Z" fill="#FFC850"/>
<path id="Vector_9" d="M40.5338 38.4308C42.7475 38.4308 44.5421 36.6362 44.5421 34.4224C44.5421 32.2087 42.7475 30.4141 40.5338 30.4141C38.32 30.4141 36.5254 32.2087 36.5254 34.4224C36.5254 36.6362 38.32 38.4308 40.5338 38.4308Z" fill="#5B5D6E"/>
<path id="Vector_10" d="M38.1285 18.3893H43.5398L42.9385 15.9844H34.9219V22.3977H37.3268V19.191C37.3268 18.7483 37.6857 18.3893 38.1285 18.3893Z" fill="#9BD6FF"/>
<path id="Vector_11" d="M14.079 28.0078C12.0547 28.0078 10.2523 28.9479 9.07702 30.4128H6.86405H4.45898V32.8177C4.45898 33.2604 4.81795 33.6194 5.26064 33.6194H34.9225V30.4127H19.0811C17.9058 28.9479 16.1034 28.0078 14.079 28.0078Z" fill="#A0D755"/>
<path id="Vector_12" d="M14.0787 38.4308C16.2925 38.4308 18.0871 36.6362 18.0871 34.4224C18.0871 32.2087 16.2925 30.4141 14.0787 30.4141C11.8649 30.4141 10.0703 32.2087 10.0703 34.4224C10.0703 36.6362 11.8649 38.4308 14.0787 38.4308Z" fill="#5B5D6E"/>
<path id="Vector_13" d="M45.1398 21.6903L43.8968 16.7183C44.2366 16.6461 44.4916 16.3446 44.4916 15.9834V15.1817C44.4916 13.4412 43.0755 12.0252 41.3351 12.0252H35.6733V10.3716C35.6733 9.51511 34.9766 8.81836 34.1201 8.81836H5.25987C4.40337 8.81836 3.70662 9.51511 3.70662 10.3716V24C3.70662 24.4151 4.04309 24.7516 4.45822 24.7516C4.87334 24.7516 5.20981 24.4152 5.20981 24V10.3716C5.20981 10.344 5.23222 10.3215 5.25987 10.3215H34.12C34.1476 10.3215 34.17 10.344 34.17 10.3716V24.0002C34.17 24.4153 34.5065 24.7518 34.9216 24.7518C35.3367 24.7518 35.6732 24.4154 35.6732 24.0002V23.1482H44.5391C44.5397 23.1482 44.5404 23.1484 44.541 23.1484C44.5417 23.1484 44.5424 23.1483 44.5431 23.1483C45.6341 23.149 46.5604 23.8651 46.8786 24.8519H44.5416C44.1266 24.8519 43.79 25.1883 43.79 25.6035V27.2068C43.79 28.5053 44.8464 29.5617 46.1449 29.5617H46.9967V32.8685H45.0315C44.386 31.0046 42.614 29.6618 40.5332 29.6618C38.4524 29.6618 36.6804 31.0045 36.0349 32.8685H35.673V27.2068C35.673 26.7917 35.3366 26.4552 34.9214 26.4552C34.5064 26.4552 34.1698 26.7916 34.1698 27.2068V32.8684H18.5766C17.931 31.0044 16.1591 29.6617 14.0783 29.6617C11.9975 29.6617 10.2254 31.0044 9.57997 32.8684H5.25987C5.23222 32.8684 5.20981 32.846 5.20981 32.8184V31.1649H8.46659C8.88163 31.1649 9.21819 30.8284 9.21819 30.4133C9.21819 29.9983 8.88172 29.6617 8.46659 29.6617H1.25159C0.836563 29.6617 0.5 29.9982 0.5 30.4133C0.5 30.8283 0.836469 31.1649 1.25159 31.1649H3.70672V32.8184C3.70672 33.6749 4.40347 34.3716 5.25997 34.3716H9.31972C9.31953 34.3883 9.31841 34.4049 9.31841 34.4217C9.31841 37.0463 11.4538 39.1815 14.0783 39.1815C16.7028 39.1815 18.8382 37.0463 18.8382 34.4217C18.8382 34.4048 18.837 34.3883 18.8368 34.3716H35.7747C35.7745 34.3883 35.7733 34.4049 35.7733 34.4217C35.7733 37.0463 37.9087 39.1815 40.5332 39.1815C43.1577 39.1815 45.2931 37.0463 45.2931 34.4217C45.2931 34.4048 45.292 34.3883 45.2918 34.3716H47.7483C48.1633 34.3716 48.4999 34.0351 48.4999 33.62V25.6033C48.5 23.6241 47.0397 21.9795 45.1398 21.6903ZM35.6733 16.7349H42.3516L43.5792 21.6451H35.6733V16.7349ZM41.3351 13.5283C42.2468 13.5283 42.9885 14.27 42.9885 15.1817V15.2318H35.6733V13.5283H41.3351ZM14.0783 37.6785C12.2825 37.6785 10.8215 36.2176 10.8215 34.4218C10.8215 32.6259 12.2825 31.165 14.0783 31.165C15.8741 31.165 17.3351 32.6259 17.3351 34.4218C17.3351 36.2176 15.8741 37.6785 14.0783 37.6785ZM40.5334 37.6785C38.7376 37.6785 37.2766 36.2176 37.2766 34.4218C37.2766 32.6259 38.7376 31.165 40.5334 31.165C42.3292 31.165 43.7902 32.6259 43.7902 34.4218C43.7902 36.2176 42.3292 37.6785 40.5334 37.6785ZM46.1451 28.0585C45.6754 28.0585 45.2933 27.6764 45.2933 27.2067V26.3549H46.9968V28.0584H46.1451V28.0585Z" fill="#422C77"/>
<path id="Vector_14" d="M14.0786 32.8672C13.2221 32.8672 12.5254 33.5639 12.5254 34.4204C12.5254 35.2769 13.2221 35.9737 14.0786 35.9737C14.9351 35.9737 15.6319 35.2769 15.6319 34.4204C15.6319 33.5639 14.9351 32.8672 14.0786 32.8672Z" fill="black"/>
<path id="Vector_15" d="M40.5337 32.8672C39.6772 32.8672 38.9805 33.5639 38.9805 34.4204C38.9805 35.2769 39.6772 35.9737 40.5337 35.9737C41.3902 35.9737 42.087 35.2769 42.087 34.4204C42.087 33.5639 41.3902 32.8672 40.5337 32.8672Z" fill="black"/>
<path id="Vector_16" d="M19.7402 30.4137C19.7402 30.8287 20.0767 31.1653 20.4918 31.1653H31.7151C32.1301 31.1653 32.4667 30.8288 32.4667 30.4137C32.4667 29.9987 32.1302 29.6621 31.7151 29.6621H20.4917C20.0767 29.6621 19.7402 29.9987 19.7402 30.4137Z" fill="black"/>
<path id="Vector_17" d="M2.85511 27.9583H12.4752C12.8902 27.9583 13.2268 27.6218 13.2268 27.2067C13.2268 26.7916 12.8903 26.4551 12.4752 26.4551H2.85511C2.44008 26.4551 2.10352 26.7915 2.10352 27.2067C2.10352 27.6218 2.44008 27.9583 2.85511 27.9583Z" fill="black"/>
<path id="Vector_18" d="M25.5724 16.2533L18.8888 22.9368L15.4119 19.4599C15.1184 19.1664 14.6425 19.1664 14.3491 19.4599C14.0555 19.7534 14.0555 20.2292 14.3491 20.5227L18.3574 24.5311C18.5041 24.6779 18.6965 24.7512 18.8888 24.7512C19.0811 24.7512 19.2735 24.6779 19.4202 24.5311L26.6352 17.3161C26.9287 17.0226 26.9287 16.5468 26.6352 16.2533C26.3418 15.9598 25.8659 15.9598 25.5724 16.2533Z" fill="black"/>
</g>
<defs>
<clipPath id="clip0_11440_34732">
<rect width="48" height="48" fill="white" transform="translate(0.5)"/>
</clipPath>
</defs>
</svg>
