<svg width="45" height="45" viewBox="0 0 45 45" fill="none" xmlns="http://www.w3.org/2000/svg">
<g id="group 1">
<path id="Vector" d="M16.1789 16.3266C16.5247 7.95146 28.475 7.95096 28.8211 16.3265C28.882 20.4861 24.673 23.5627 20.7914 22.4086C18.1336 21.6633 16.1789 19.2164 16.1789 16.3266ZM32.6883 32.5336C31.8586 27.668 27.6047 23.9555 22.5 23.9555C16.7345 23.913 11.908 28.879 12.1992 34.5164C12.2906 34.7977 12.5578 34.9875 12.8602 34.9875H32.1399C33.2998 34.8897 32.7261 33.2712 32.6883 32.5336ZM34.7696 24.5039C37.3149 24.5039 39.3891 22.4297 39.3891 19.8844C39.1572 13.7738 30.381 13.7754 30.15 19.8844C30.15 22.4297 32.2243 24.5039 34.7696 24.5039ZM34.7696 24.9961C33.4618 24.9961 32.168 25.3406 31.043 25.9945C31.3735 26.3391 31.6758 26.7117 31.9571 27.0984C33.2254 28.81 34.0176 30.937 34.1719 33.1102H41.4844C41.8711 33.1102 42.1875 32.7938 42.1875 32.407C42.1875 28.3219 38.8618 24.9961 34.7696 24.9961ZM10.2305 24.5039C12.7758 24.5039 14.85 22.4297 14.85 19.8844C14.6181 13.7738 5.84193 13.7754 5.61095 19.8844C5.61095 22.4297 7.68518 24.5039 10.2305 24.5039ZM13.957 25.9945C9.16268 23.104 2.71254 26.7997 2.81261 32.4072C2.81253 32.7938 3.12894 33.1102 3.51565 33.1102H10.8282C11.0182 30.4418 12.15 27.9094 13.957 25.9945Z" fill="url(#paint0_linear_383_21216)"/>
</g>
<defs>
<linearGradient id="paint0_linear_383_21216" x1="2.81112" y1="22.5162" x2="42.1875" y2="22.5162" gradientUnits="userSpaceOnUse">
<stop stop-color="#096FE0"/>
<stop offset="0.15843" stop-color="#167CE3"/>
<stop offset="1" stop-color="#5EC3F6"/>
</linearGradient>
</defs>
</svg>
