<svg width="100" height="100" viewBox="0 0 100 100" fill="none" xmlns="http://www.w3.org/2000/svg">
<g id="walkie-talkie 2">
<g id="Group">
<g id="Group_2">
<path id="Vector" d="M70.6283 23.8957V19.8902C70.6283 17.6781 68.835 15.8848 66.6228 15.8848C64.4107 15.8848 62.6174 17.6781 62.6174 19.8902V23.8957H70.6283Z" fill="#FE76A8"/>
</g>
<g id="Group_3">
<path id="Vector_2" d="M28.9711 43.3223H25.3662C24.0389 43.3223 22.9629 42.2463 22.9629 40.9189V33.709C22.9629 32.3816 24.0389 31.3057 25.3662 31.3057H28.9711V43.3223Z" fill="#838383"/>
</g>
<g id="Group_4">
<path id="Vector_3" d="M28.9711 61.3471H25.3662C24.0389 61.3471 22.9629 60.2711 22.9629 58.9438V51.7338C22.9629 50.4065 24.0389 49.3305 25.3662 49.3305H28.9711V61.3471Z" fill="#838383"/>
</g>
<g id="Group_5">
<path id="Vector_4" d="M35.3799 1.46484H41.3881V23.8957H35.3799V1.46484Z" fill="#0055A3"/>
</g>
<g id="Group_6">
<path id="Vector_5" d="M73.0316 100H32.9766C30.7645 100 28.9711 98.2066 28.9711 95.9945V27.9012C28.9711 25.6891 30.7645 23.8957 32.9766 23.8957H73.0314C75.2436 23.8957 77.0369 25.6891 77.0369 27.9012V95.9945C77.0371 98.2066 75.2437 100 73.0316 100Z" fill="#528FD8"/>
</g>
<g id="Group_7">
<path id="Vector_6" d="M73.0316 23.8957H66.6228C68.835 23.8957 70.6283 25.6891 70.6283 27.9012V95.9945C70.6283 98.2066 68.835 100 66.6228 100H73.0316C75.2437 100 77.0371 98.2066 77.0371 95.9945V27.9012C77.0371 25.6889 75.2437 23.8957 73.0316 23.8957Z" fill="#0573CE"/>
</g>
<g id="Group_8">
<path id="Vector_7" d="M35.3799 55.5391V46.7269C35.3799 45.6209 36.2766 44.7242 37.3826 44.7242H68.6254C69.7314 44.7242 70.6281 45.6209 70.6281 46.7269V55.5391C70.6281 56.6451 69.7314 57.5418 68.6254 57.5418H37.3826C36.2766 57.5418 35.3799 56.6451 35.3799 55.5391Z" fill="#A2E62E"/>
</g>
<g id="Group_9">
<path id="Vector_8" d="M68.6256 44.7242H62.6174C63.7234 44.7242 64.6201 45.6209 64.6201 46.7269V55.5391C64.6201 56.6451 63.7234 57.5418 62.6174 57.5418H68.6256C69.7316 57.5418 70.6283 56.6451 70.6283 55.5391V46.7269C70.6283 45.6209 69.7316 44.7242 68.6256 44.7242Z" fill="#97D729"/>
</g>
<g id="Group_10">
<g id="Group_11">
<path id="Vector_9" d="M55.0068 69.5582H51.0014C50.1164 69.5582 49.3992 68.8408 49.3992 67.9561V65.1522C49.3992 64.2672 50.1166 63.55 51.0014 63.55H55.0068C55.8918 63.55 56.609 64.2674 56.609 65.1522V67.9561C56.609 68.8408 55.8918 69.5582 55.0068 69.5582Z" fill="#EAF6FF"/>
</g>
<g id="Group_12">
<path id="Vector_10" d="M40.9877 69.5582H36.9822C36.0973 69.5582 35.3801 68.8408 35.3801 67.9561V65.1522C35.3801 64.2672 36.0975 63.55 36.9822 63.55H40.9877C41.8727 63.55 42.5898 64.2674 42.5898 65.1522V67.9561C42.5898 68.8408 41.8725 69.5582 40.9877 69.5582Z" fill="#EAF6FF"/>
</g>
<g id="Group_13">
<path id="Vector_11" d="M65.0205 69.5582H69.026C69.9109 69.5582 70.6281 68.8408 70.6281 67.9561V65.1522C70.6281 64.2672 69.9107 63.55 69.026 63.55H65.0205C64.1355 63.55 63.4184 64.2674 63.4184 65.1522V67.9561C63.4184 68.8408 64.1357 69.5582 65.0205 69.5582Z" fill="#EAF6FF"/>
</g>
<g id="Group_14">
<path id="Vector_12" d="M55.0068 81.5748H51.0014C50.1164 81.5748 49.3992 80.8574 49.3992 79.9727V77.1688C49.3992 76.2838 50.1166 75.5666 51.0014 75.5666H55.0068C55.8918 75.5666 56.609 76.284 56.609 77.1688V79.9727C56.609 80.8574 55.8918 81.5748 55.0068 81.5748Z" fill="#EAF6FF"/>
</g>
<g id="Group_15">
<path id="Vector_13" d="M40.9877 81.5748H36.9822C36.0973 81.5748 35.3801 80.8574 35.3801 79.9727V77.1688C35.3801 76.2838 36.0975 75.5666 36.9822 75.5666H40.9877C41.8727 75.5666 42.5898 76.284 42.5898 77.1688V79.9727C42.5898 80.8574 41.8725 81.5748 40.9877 81.5748Z" fill="#EAF6FF"/>
</g>
<g id="Group_16">
<path id="Vector_14" d="M65.0205 81.5748H69.026C69.9109 81.5748 70.6281 80.8574 70.6281 79.9727V77.1688C70.6281 76.2838 69.9107 75.5666 69.026 75.5666H65.0205C64.1355 75.5666 63.4184 76.284 63.4184 77.1688V79.9727C63.4184 80.8574 64.1357 81.5748 65.0205 81.5748Z" fill="#EAF6FF"/>
</g>
<g id="Group_17">
<path id="Vector_15" d="M55.0068 93.5912H51.0014C50.1164 93.5912 49.3992 92.8738 49.3992 91.9891V89.1852C49.3992 88.3002 50.1166 87.583 51.0014 87.583H55.0068C55.8918 87.583 56.609 88.3004 56.609 89.1852V91.9891C56.609 92.8738 55.8918 93.5912 55.0068 93.5912Z" fill="#EAF6FF"/>
</g>
<g id="Group_18">
<path id="Vector_16" d="M40.9877 93.5912H36.9822C36.0973 93.5912 35.3801 92.8738 35.3801 91.9891V89.1852C35.3801 88.3002 36.0975 87.583 36.9822 87.583H40.9877C41.8727 87.583 42.5898 88.3004 42.5898 89.1852V91.9891C42.5898 92.8738 41.8725 93.5912 40.9877 93.5912Z" fill="#EAF6FF"/>
</g>
<g id="Group_19">
<path id="Vector_17" d="M65.0205 93.5912H69.026C69.9109 93.5912 70.6281 92.8738 70.6281 91.9891V89.1852C70.6281 88.3002 69.9107 87.583 69.026 87.583H65.0205C64.1355 87.583 63.4184 88.3004 63.4184 89.1852V91.9891C63.4184 92.8738 64.1357 93.5912 65.0205 93.5912Z" fill="#EAF6FF"/>
</g>
</g>
<g id="Group_20">
<g id="Group_21">
<g id="Group_22">
<path id="Vector_18" d="M53.0041 32.3072C53.5571 32.3072 54.0055 31.8589 54.0055 31.3059C54.0055 30.7528 53.5571 30.3045 53.0041 30.3045C52.4511 30.3045 52.0027 30.7528 52.0027 31.3059C52.0027 31.8589 52.4511 32.3072 53.0041 32.3072Z" fill="#0055A3"/>
</g>
<g id="Group_23">
<path id="Vector_19" d="M57.0096 32.3072C57.5626 32.3072 58.0109 31.8589 58.0109 31.3059C58.0109 30.7528 57.5626 30.3045 57.0096 30.3045C56.4565 30.3045 56.0082 30.7528 56.0082 31.3059C56.0082 31.8589 56.4565 32.3072 57.0096 32.3072Z" fill="#0055A3"/>
</g>
<g id="Group_24">
<path id="Vector_20" d="M48.9986 32.3072C49.5517 32.3072 50 31.8589 50 31.3059C50 30.7528 49.5517 30.3045 48.9986 30.3045C48.4456 30.3045 47.9973 30.7528 47.9973 31.3059C47.9973 31.8589 48.4456 32.3072 48.9986 32.3072Z" fill="#0055A3"/>
</g>
</g>
<g id="Group_25">
<g id="Group_26">
<path id="Vector_21" d="M55.0068 36.3127C55.5599 36.3127 56.0082 35.8644 56.0082 35.3113C56.0082 34.7583 55.5599 34.31 55.0068 34.31C54.4538 34.31 54.0055 34.7583 54.0055 35.3113C54.0055 35.8644 54.4538 36.3127 55.0068 36.3127Z" fill="#0055A3"/>
</g>
<g id="Group_27">
<path id="Vector_22" d="M59.0123 36.3127C59.5653 36.3127 60.0137 35.8644 60.0137 35.3113C60.0137 34.7583 59.5653 34.31 59.0123 34.31C58.4593 34.31 58.0109 34.7583 58.0109 35.3113C58.0109 35.8644 58.4593 36.3127 59.0123 36.3127Z" fill="#0055A3"/>
</g>
<g id="Group_28">
<path id="Vector_23" d="M51.0014 36.3127C51.5544 36.3127 52.0027 35.8644 52.0027 35.3113C52.0027 34.7583 51.5544 34.31 51.0014 34.31C50.4483 34.31 50 34.7583 50 35.3113C50 35.8644 50.4483 36.3127 51.0014 36.3127Z" fill="#0055A3"/>
</g>
<g id="Group_29">
<path id="Vector_24" d="M46.9959 36.3127C47.5489 36.3127 47.9973 35.8644 47.9973 35.3113C47.9973 34.7583 47.5489 34.31 46.9959 34.31C46.4429 34.31 45.9945 34.7583 45.9945 35.3113C45.9945 35.8644 46.4429 36.3127 46.9959 36.3127Z" fill="#0055A3"/>
</g>
</g>
<g id="Group_30">
<g id="Group_31">
<path id="Vector_25" d="M57.0096 40.3182C57.5626 40.3182 58.0109 39.8698 58.0109 39.3168C58.0109 38.7638 57.5626 38.3154 57.0096 38.3154C56.4565 38.3154 56.0082 38.7638 56.0082 39.3168C56.0082 39.8698 56.4565 40.3182 57.0096 40.3182Z" fill="#0055A3"/>
</g>
<g id="Group_32">
<path id="Vector_26" d="M53.0041 40.3182C53.5571 40.3182 54.0055 39.8698 54.0055 39.3168C54.0055 38.7638 53.5571 38.3154 53.0041 38.3154C52.4511 38.3154 52.0027 38.7638 52.0027 39.3168C52.0027 39.8698 52.4511 40.3182 53.0041 40.3182Z" fill="#0055A3"/>
</g>
<g id="Group_33">
<path id="Vector_27" d="M48.9986 40.3182C49.5517 40.3182 50 39.8698 50 39.3168C50 38.7638 49.5517 38.3154 48.9986 38.3154C48.4456 38.3154 47.9973 38.7638 47.9973 39.3168C47.9973 39.8698 48.4456 40.3182 48.9986 40.3182Z" fill="#0055A3"/>
</g>
</g>
</g>
<g id="Group_34">
<path id="Vector_28" d="M43.5912 2.92969H33.1771C32.368 2.92969 31.7123 2.27402 31.7123 1.46484C31.7123 0.655664 32.368 0 33.1771 0H43.5912C44.4004 0 45.0561 0.655664 45.0561 1.46484C45.0561 2.27402 44.4002 2.92969 43.5912 2.92969Z" fill="#528FD8"/>
</g>
</g>
<g id="Group_35">
<path id="Vector_29" d="M50.3567 11.7285C50.3213 10.6329 49.996 9.61488 49.4566 8.74616C49.0407 8.07592 48.1069 7.97462 47.5619 8.54433L47.5566 8.5496C47.1753 8.94851 47.1181 9.55304 47.4083 10.0224C47.7299 10.5426 47.9241 11.1517 47.9452 11.8068C47.967 12.4768 47.8053 13.1105 47.505 13.6592C47.241 14.1421 47.3339 14.7419 47.7354 15.1183L47.7407 15.1233C48.3175 15.6638 49.2445 15.5082 49.6237 14.8148C50.1239 13.9008 50.3932 12.845 50.3567 11.7285Z" fill="#54A1FF"/>
<path id="Vector_30" d="M55.1796 11.572C55.0993 9.0987 54.1985 6.84573 52.7471 5.06575C52.2926 4.50823 51.4487 4.48201 50.9515 5.00181L50.9468 5.00677C50.5286 5.44351 50.4973 6.12458 50.879 6.59358C52.0066 7.97751 52.7058 9.72815 52.7682 11.6503C52.8317 13.6052 52.2262 15.4257 51.1579 16.8931C50.8026 17.3812 50.8726 18.0592 51.3131 18.4719L51.3178 18.4763C51.8432 18.9688 52.6846 18.8955 53.1086 18.3135C54.4821 16.4269 55.261 14.0853 55.1796 11.572Z" fill="#54A1FF"/>
<path id="Vector_31" d="M60.0022 11.4154C59.879 7.61459 58.4143 4.17369 56.0772 1.53272C55.6103 1.00481 54.792 0.98785 54.3048 1.49711L54.3004 1.50176C53.8645 1.95739 53.8594 2.66762 54.2768 3.14016C56.2498 5.37321 57.4868 8.28232 57.5911 11.4937C57.6969 14.7608 56.6129 17.7916 54.7299 20.1669C54.3417 20.6563 54.3962 21.3621 54.8516 21.7893L54.8562 21.7937C55.3708 22.2762 56.1869 22.2135 56.6249 21.6607C58.8482 18.8538 60.1277 15.275 60.0022 11.4154Z" fill="#54A1FF"/>
</g>
<g id="Group_36">
<path id="Vector_32" d="M25.9375 11.7285C25.9728 10.6329 26.2981 9.61488 26.8375 8.74616C27.2535 8.07592 28.1873 7.97462 28.7322 8.54433L28.7375 8.5496C29.1188 8.94851 29.1761 9.55304 28.8858 10.0224C28.5643 10.5426 28.37 11.1517 28.3489 11.8068C28.3271 12.4768 28.4889 13.1105 28.7891 13.6592C29.0531 14.1421 28.9602 14.7419 28.5587 15.1183L28.5535 15.1233C27.9767 15.6638 27.0497 15.5082 26.6704 14.8148C26.1703 13.9008 25.9009 12.845 25.9375 11.7285Z" fill="#54A1FF"/>
<path id="Vector_33" d="M21.1145 11.572C21.1948 9.0987 22.0956 6.84573 23.5471 5.06575C24.0016 4.50823 24.8454 4.48201 25.3426 5.00181L25.3473 5.00677C25.7656 5.44351 25.7969 6.12458 25.4152 6.59358C24.2876 7.97751 23.5884 9.72815 23.526 11.6503C23.4624 13.6052 24.068 15.4257 25.1362 16.8931C25.4915 17.3812 25.4215 18.0592 24.981 18.4719L24.9764 18.4763C24.451 18.9688 23.6095 18.8955 23.1856 18.3135C21.812 16.4269 21.0331 14.0853 21.1145 11.572Z" fill="#54A1FF"/>
<path id="Vector_34" d="M16.2919 11.4154C16.4152 7.61459 17.8799 4.17369 20.217 1.53272C20.6839 1.00481 21.5022 0.98785 21.9894 1.49711L21.9938 1.50176C22.4296 1.95739 22.4348 2.66762 22.0174 3.14016C20.0443 5.37321 18.8074 8.28232 18.7031 11.4937C18.5973 14.7608 19.6812 17.7916 21.5643 20.1669C21.9525 20.6563 21.898 21.3621 21.4426 21.7893L21.438 21.7937C20.9234 22.2762 20.1073 22.2135 19.6693 21.6607C17.446 18.8538 16.1665 15.275 16.2919 11.4154Z" fill="#54A1FF"/>
</g>
</g>
</svg>
