<svg width="26" height="24" viewBox="0 0 26 24" fill="none" xmlns="http://www.w3.org/2000/svg">
<path d="M12 12C14.7614 12 17 9.76142 17 7C17 4.23858 14.7614 2 12 2C9.23858 2 7 4.23858 7 7C7 9.76142 9.23858 12 12 12Z" stroke="#8496AC" stroke-width="1.5" stroke-linecap="round" stroke-linejoin="round"/>
<path d="M20.59 22C20.59 18.13 16.74 15 12 15C7.26 15 3.41 18.13 3.41 22" stroke="#8496AC" stroke-width="1.5" stroke-linecap="round" stroke-linejoin="round"/>
<path d="M23.3473 6.81818L23.4361 5.44389L22.2855 6.21449L21.8097 5.37642L23.049 4.77273L21.8097 4.16903L22.2855 3.33097L23.4361 4.10156L23.3473 2.72727H24.3026L24.2102 4.10156L25.3608 3.33097L25.8366 4.16903L24.6009 4.77273L25.8366 5.37642L25.3608 6.21449L24.2102 5.44389L24.3026 6.81818H23.3473Z" fill="#8496AC"/>
</svg>
