<svg width="20" height="20" viewBox="0 0 20 20" fill="none" xmlns="http://www.w3.org/2000/svg">
<g id="vuesax/linear/user-octagon">
<g id="user-octagon">
<path id="Vector" d="M17.5667 7.15005V12.85C17.5667 13.7834 17.0667 14.6501 16.2583 15.1251L11.3083 17.9834C10.5 18.45 9.5 18.45 8.68334 17.9834L3.73334 15.1251C2.925 14.6584 2.425 13.7917 2.425 12.85V7.15005C2.425 6.21672 2.925 5.35001 3.73334 4.87501L8.68334 2.01669C9.49167 1.55002 10.4917 1.55002 11.3083 2.01669L16.2583 4.87501C17.0667 5.35001 17.5667 6.20838 17.5667 7.15005Z" stroke="#777E90" stroke-width="1.2" stroke-linecap="round" stroke-linejoin="round"/>
<g id="Group">
<path id="Vector_2" d="M10 9.16664C11.0724 9.16664 11.9417 8.29731 11.9417 7.22496C11.9417 6.1526 11.0724 5.28333 10 5.28333C8.92765 5.28333 8.05833 6.1526 8.05833 7.22496C8.05833 8.29731 8.92765 9.16664 10 9.16664Z" stroke="#777E90" stroke-width="1.2" stroke-linecap="round" stroke-linejoin="round"/>
<path id="Vector_3" d="M13.3333 13.8833C13.3333 12.3833 11.8417 11.1666 10 11.1666C8.15834 11.1666 6.66667 12.3833 6.66667 13.8833" stroke="#777E90" stroke-width="1.2" stroke-linecap="round" stroke-linejoin="round"/>
</g>
</g>
</g>
</svg>
